HIERARCHY
ROOT Hips
{
	OFFSET -3.958830 18.904000 13.208200
	CHANNELS 6 Xposition Yposition Zposition Zrotation Yrotation Xrotation 
	JOINT LHipJoint
	{
		OFFSET 0.000000 0.000000 0.000000
		CHANNELS 3 Zrotation Yrotation Xrotation
		JOINT LeftUpLeg
		{
			OFFSET 1.800000 -1.400000 0.085000
			CHANNELS 3 Zrotation Yrotation Xrotation
			JOINT LeftLeg
			{
				OFFSET 2.215000 -6.000000 0.000000
				CHANNELS 3 Zrotation Yrotation Xrotation
				JOINT LeftFoot
				{
					OFFSET 2.500000 -6.900000 0.000000
					CHANNELS 3 Zrotation Yrotation Xrotation
					JOINT LeftToeBase
					{
						OFFSET 0.200000 -0.500000 1.950000
						CHANNELS 3 Zrotation Yrotation Xrotation
						End Site
						{
							OFFSET 0.000000 0.000000 0.000000
						}
					}
				}
			}
		}
	}
	JOINT RHipJoint
	{
		OFFSET 0.000000 0.000000 0.000000
		CHANNELS 3 Zrotation Yrotation Xrotation
		JOINT RightUpLeg
		{
			OFFSET -1.800000 -1.400000 0.085000
			CHANNELS 3 Zrotation Yrotation Xrotation
			JOINT RightLeg
			{
				OFFSET -2.215000 -6.000000 0.000000
				CHANNELS 3 Zrotation Yrotation Xrotation
				JOINT RightFoot
				{
					OFFSET -2.500000 -6.900000 0.000000
					CHANNELS 3 Zrotation Yrotation Xrotation
					JOINT RightToeBase
					{
						OFFSET -0.200000 -0.500000 1.950000
						CHANNELS 3 Zrotation Yrotation Xrotation
						End Site
						{
							OFFSET 0.000000 0.000000 0.000000
						}
					}
				}
			}
		}
	}
	JOINT LowerBack
	{
		OFFSET 0.000000 0.000000 0.000000
		CHANNELS 3 Zrotation Yrotation Xrotation
		JOINT Spine
		{
			OFFSET -0.087000 1.940000 -0.288900
			CHANNELS 3 Zrotation Yrotation Xrotation
			JOINT Spine1
			{
				OFFSET 0.000000 1.950000 0.060000
				CHANNELS 3 Zrotation Yrotation Xrotation
				JOINT Neck
				{
					OFFSET 0.000000 0.000000 0.000000
					CHANNELS 3 Zrotation Yrotation Xrotation
					JOINT Neck1
					{
						OFFSET 0.000000 1.600000 0.340000
						CHANNELS 3 Zrotation Yrotation Xrotation
						JOINT Head
						{
							OFFSET 0.000000 1.667000 -0.240000
							CHANNELS 3 Zrotation Yrotation Xrotation
							End Site
							{
								OFFSET 0.000000 0.000000 0.000000
							}
						}
					}
				}
				JOINT LeftShoulder
				{
					OFFSET 0.000000 0.000000 0.000000
					CHANNELS 3 Zrotation Yrotation Xrotation
					JOINT LeftArm
					{
						OFFSET 2.700000 1.550000 -0.730000
						CHANNELS 3 Zrotation Yrotation Xrotation
						JOINT LeftForeArm
						{
							OFFSET 5.450000 0.000000 0.000000
							CHANNELS 3 Zrotation Yrotation Xrotation
							JOINT LeftHand
							{
								OFFSET 3.450000 0.000000 0.000000
								CHANNELS 3 Zrotation Yrotation Xrotation
								JOINT LeftHandIndex1
								{
									OFFSET 0.750000 0.000000 0.000000
									CHANNELS 3 Zrotation Yrotation Xrotation
									End Site
									{
										OFFSET 0.000000 0.000000 0.000000
									}
								}
							}
						}
					}
				}
				JOINT RightShoulder
				{
					OFFSET 0.000000 0.000000 0.000000
					CHANNELS 3 Zrotation Yrotation Xrotation
					JOINT RightArm
					{
						OFFSET -2.700000 1.550000 -0.730000
						CHANNELS 3 Zrotation Yrotation Xrotation
						JOINT RightForeArm
						{
							OFFSET -5.450000 0.000000 0.000000
							CHANNELS 3 Zrotation Yrotation Xrotation
							JOINT RightHand
							{
								OFFSET -3.450000 0.000000 0.000000
								CHANNELS 3 Zrotation Yrotation Xrotation
								JOINT RightHandIndex1
								{
									OFFSET -0.750000 0.000000 0.000000
									CHANNELS 3 Zrotation Yrotation Xrotation
									End Site
									{
										OFFSET 0.000000 0.000000 0.000000
									}
								}
							}
						}
					}
				}
			}
		}
	}
}
MOTION
Frames: 14
Frame Time: 0.016667
16.981580 17.986140 4.432540 6.552540 -13.440816 8.529902 -15.496541 13.479434 4.347555 -2.167108 -4.008333 -7.327115 -13.831460 3.484917 0.683550 -0.092530 5.391240 3.741742 3.608430 0.557560 4.123270 17.660824 -10.557917 3.664876 4.855669 3.276775 -16.894034 3.796380 -2.483072 4.513297 -0.826002 -2.337594 4.433991 0.633030 -1.006070 2.296280 -1.748604 -2.392359 -9.707716 3.760284 -6.690140 5.429249 1.014048 0.617794 -28.480419 8.687236 -0.167572 -16.605186 -1.455033 -9.681391 44.867253 -16.241610 -7.092970 -3.551080 6.533914 9.729459 -4.317998 -24.499597 -1.985608 -0.583429 5.978819 -6.957079 -1.632821 -3.623619 2.875649 1.746760 0.311300 0.972990 1.238710 -24.669746 6.392687 13.542313 36.051557 4.658693 -1.393750 -9.754365 16.498132 0.336152 1.469331 -3.481878 0.547830 -1.395970 -2.710340 -1.408620 
16.947620 17.984620 4.477130 6.229734 -14.171544 8.475147 -15.515132 13.549605 4.399101 -2.388987 -3.985439 -7.223624 -13.574429 3.252442 -0.142812 0.055050 5.293980 3.669087 3.641450 0.616710 4.048770 17.642545 -10.470305 3.658418 4.680760 3.198022 -16.309359 4.266297 -2.604308 4.306621 -0.875456 -2.442998 4.333573 0.588790 -1.084900 2.472240 -1.684870 -2.709245 -9.794602 4.584439 -6.591122 5.053069 0.613466 0.847117 -27.840294 9.176349 -0.120790 -17.014891 -1.523171 -8.459456 46.032795 -15.953080 -5.926990 -2.054580 6.941051 9.183221 -3.566502 -24.273538 -1.409252 -0.685391 5.544608 -6.746052 -1.639617 -3.647556 3.185662 1.644570 0.322960 1.026370 1.236790 -25.459097 6.537047 13.236764 36.499996 5.142094 -1.350912 -9.957004 16.449715 0.375799 1.498785 -3.642289 0.753800 -1.632470 -2.688720 -1.344850 
16.804380 18.045130 4.646280 4.789634 -16.554365 8.881594 -15.506901 13.703990 4.445482 -2.102594 -4.308597 -8.471064 -11.795700 2.503392 -1.799235 0.347873 4.832732 3.755169 3.861830 0.885020 4.039810 17.645207 -10.259479 3.703587 4.373898 2.883403 -14.669740 5.758680 -2.591261 2.327898 -1.097395 -2.555010 4.190535 0.624880 -1.279210 2.641220 -1.666235 -3.396679 -9.954901 7.396751 -6.094428 5.056909 -1.056346 1.437387 -27.777396 9.747108 -0.108785 -17.163915 -1.792640 -7.261362 46.779809 -13.880190 -5.537320 -1.247420 6.261799 8.426552 -2.780695 -23.466574 -1.444884 -0.572679 8.166003 -4.437231 -1.393920 -3.543888 3.704733 1.493040 0.206980 1.199080 1.407680 -25.208946 7.028017 12.728798 35.858839 5.525578 -1.055455 -9.141727 14.864242 0.415613 1.633258 -3.895552 1.078260 -1.892660 -2.846310 -1.210210 
16.642410 18.020610 4.707120 5.404890 -18.021182 5.087970 -15.600684 13.658337 4.331194 -1.905395 -3.839702 -6.512290 -12.203790 2.806359 -1.363884 0.349043 5.086437 3.726662 3.867690 0.956410 3.948950 17.613099 -10.229489 3.536568 2.882169 2.456440 -12.265155 6.773887 -2.899209 2.169923 -1.139809 -2.839173 4.162072 0.717410 -1.164120 2.553570 -1.492500 -3.397333 -9.640364 4.672773 -5.887068 9.206821 0.358027 1.790380 -24.024728 9.960076 -0.806680 -17.041532 -2.572418 -5.384226 44.825668 -11.564900 -5.041980 -2.390980 5.570694 7.441211 -2.676144 -23.574456 -1.518384 -0.260855 9.020183 -6.168246 -1.456312 -3.543769 3.663645 1.479080 0.243110 1.138310 1.480680 -25.051351 8.927996 13.451884 35.901193 7.000289 -0.000468 -12.006954 11.316273 0.122223 1.684988 -3.813657 1.000100 -1.733900 -2.828390 -1.184360 
16.528070 18.009680 4.777820 3.426506 -18.851386 1.519301 -15.809066 14.074869 4.204906 0.867025 -3.435114 -4.032717 -11.995000 3.264244 -0.861041 0.363868 5.541828 3.671372 3.910620 0.965340 4.071600 17.490889 -9.689403 3.445135 4.229069 2.176157 -9.454134 6.938857 -3.050729 2.085391 -1.174884 -2.880631 4.256546 0.742720 -1.108400 2.449060 -1.084785 -4.992576 -9.562372 6.472201 -5.965449 15.207328 0.312054 2.440717 -19.389737 11.237074 -1.703650 -16.989045 -4.473438 -5.846862 41.533290 -12.197350 -5.276140 -7.590530 1.801201 5.560108 -1.999554 -22.324812 1.502128 -0.907136 11.940436 -11.726368 -1.794920 -3.405505 3.522499 1.584570 0.223290 1.134880 1.497500 -23.626155 11.744976 14.323715 32.465689 7.321573 0.129801 -14.102771 7.399915 0.078365 1.776691 -3.595492 0.887250 -1.531480 -2.875450 -1.228750 
16.368350 17.967480 4.873880 3.524654 -18.920024 0.047522 -15.880984 13.966695 4.103642 2.013122 -3.387527 -3.467676 -13.105335 3.555091 -0.352166 0.320909 5.863703 3.555836 3.904610 0.931900 4.072820 17.481706 -9.608574 3.320422 3.736953 2.468644 -10.429070 6.906084 -2.985988 2.187138 -1.115911 -2.905924 4.192812 0.793330 -1.070150 2.485930 -1.003497 -4.903083 -9.289213 3.891964 -5.844372 17.380497 2.771741 2.058228 -17.008639 11.121174 -1.135579 -16.471091 -2.706287 -5.412595 36.763943 -11.873510 -3.410610 -6.187670 1.063306 5.399459 -2.007708 -21.999367 3.854147 -1.714748 11.892457 -16.363442 -2.036928 -3.411285 3.645540 1.568590 0.293000 1.072010 1.475520 -23.337654 11.227330 14.560873 30.192368 7.798350 0.447597 -13.609747 8.060582 -0.221842 1.694874 -3.677314 0.838660 -1.574420 -2.847670 -1.270630 
16.248950 17.947140 4.983810 2.545602 -19.914030 -0.739353 -15.816705 14.278029 4.131306 3.261787 -3.333450 -3.816760 -13.556610 3.845919 0.541878 0.553587 5.823729 3.440009 3.936300 0.990130 4.010070 17.512395 -9.422376 3.332448 3.896566 2.822288 -11.503926 6.977657 -2.965239 2.891615 -1.134280 -2.736059 4.176134 0.693820 -1.199670 2.631610 -1.120370 -5.781364 -9.327154 6.423993 -6.724513 22.090419 -0.485769 3.134003 -21.826474 10.226103 -1.039467 -16.012385 -3.120854 -4.522684 39.533209 -8.149900 -4.504650 -6.674480 4.059117 7.247987 -2.360402 -22.807731 -0.153013 -0.783221 11.238071 -12.284877 -1.763743 -3.406378 3.903616 1.499730 0.211780 1.172480 1.453940 -24.170917 9.429290 13.595642 32.831808 7.361057 -0.354312 -14.040728 12.065962 -0.238088 1.721754 -3.818690 1.080590 -1.819490 -2.843890 -1.176530 
16.125410 17.870610 5.072330 0.920358 -20.943158 -3.054701 -15.927696 14.481334 4.107290 5.853910 -3.173667 -1.652367 -12.750391 3.785663 -0.588797 0.522153 6.223731 3.343516 3.996090 1.005970 4.055090 17.479431 -9.042436 3.176979 4.141549 3.158112 -11.312564 6.633046 -2.959360 4.253396 -1.129962 -2.717738 4.115057 0.798240 -1.204670 2.604120 -0.953254 -6.751553 -9.219514 7.929251 -6.956090 26.851103 -0.737900 2.658437 -18.571908 10.683694 -2.153862 -15.152864 -4.831954 -2.868037 35.274945 -6.596470 -3.185620 -7.469180 1.758136 6.389823 -2.233118 -22.359610 -0.532577 -0.606215 13.989923 -9.645648 -2.070415 -3.429199 3.950321 1.558090 0.193570 1.148880 1.484100 -22.759269 10.155899 13.420934 30.817268 8.081233 -0.296864 -16.320329 9.407586 -0.560838 1.769829 -3.876014 0.989540 -1.797430 -2.874790 -1.233930 
16.069860 17.729090 4.950390 -0.634362 -20.737422 -16.536062 -16.066637 14.401203 3.904474 10.384892 -1.892225 9.432469 -11.936033 4.905748 -0.160276 0.844534 7.499516 3.025864 4.090310 1.132670 4.153000 17.567122 -8.689100 2.805618 4.012783 1.726312 -1.268471 4.633425 -3.860152 6.306051 -1.395698 -3.548946 3.894581 0.874630 -1.203440 2.563210 -0.981530 -7.053091 -8.656554 9.177035 -5.427314 38.826312 -3.674125 -2.218506 8.840973 10.901895 -2.625175 -17.390363 -4.040647 -4.157603 23.923897 -3.124640 -4.021980 -17.255000 1.158638 -6.724719 4.263632 -19.855501 -0.912907 -0.912822 17.279166 1.021952 -2.129255 -3.449854 3.969613 1.618060 0.158450 1.196130 1.497810 -23.170759 18.563310 16.322887 28.635731 6.279029 -1.823916 -17.381966 -2.507420 -0.356726 1.993135 -3.791780 0.967960 -1.671940 -2.934720 -1.240440 
15.920260 17.617810 5.095520 -0.783609 -21.921530 -15.621995 -15.933811 14.478037 3.815300 10.507834 -1.948196 7.714236 -11.004481 4.909928 1.226562 0.628767 7.325911 3.131974 4.071690 1.127510 4.161310 17.637149 -8.913777 2.772055 2.767378 2.383257 -5.107944 5.837213 -3.794812 7.330042 -1.264641 -3.267360 4.051448 0.929440 -1.086820 2.450540 -1.215863 -6.785780 -8.544410 9.377576 -6.086371 41.383357 -3.953228 -1.448382 2.431581 10.087244 -2.518096 -15.326420 -3.810542 -3.770169 23.338808 -1.422320 -4.100550 -18.760460 0.544963 -2.746145 1.394428 -18.664436 -4.860833 0.345938 16.108887 3.539064 -1.710182 -3.579299 3.682234 1.659480 0.196520 1.129390 1.504350 -21.347280 14.856860 14.875112 28.549874 7.726552 -1.380011 -18.373803 0.010047 -0.692403 1.856673 -3.701069 0.830470 -1.480630 -2.918400 -1.264670 
15.802230 17.483820 5.160100 -0.119656 -21.890008 -20.481417 -15.817755 14.263552 3.646847 11.002620 -1.333550 11.246682 -10.379068 5.409001 3.108179 0.688081 7.580136 3.128126 4.148340 1.286920 4.148250 17.752494 -9.260388 2.682478 0.425696 1.880651 -3.148986 6.030187 -3.984201 7.151906 -1.374702 -3.566745 3.993452 1.068240 -1.029850 2.372680 -1.569776 -5.842930 -8.131769 8.910887 -5.788247 43.413367 -5.357409 -3.493727 16.197253 9.398905 -2.567622 -17.311017 -2.568405 -3.661481 18.177644 0.905070 -4.065920 -21.005850 3.129029 -8.950580 5.164346 -16.649298 -2.590377 -0.258814 14.624955 9.044951 -1.559332 -3.611542 3.610177 1.646460 0.202970 1.150160 1.620960 -22.099942 19.520555 17.035301 27.966063 6.362555 -1.598908 -16.346572 -5.142462 -0.513827 1.909905 -3.688824 0.777900 -1.323890 -2.994590 -1.224890 
15.623220 17.285860 5.322220 1.617527 -23.449204 -18.032378 -15.928427 14.543001 3.584457 10.277838 -1.733622 7.838393 -11.796696 5.911152 6.179613 0.491949 7.614559 3.137089 4.091830 1.196910 4.199470 17.632270 -9.115892 2.521383 -1.509204 2.607173 -9.578944 7.119219 -3.614314 7.718760 -1.128076 -3.048985 4.192595 1.083590 -0.936780 2.298530 -1.153133 -6.530533 -8.167427 4.294887 -3.395124 42.585122 -1.123402 -2.322151 10.122552 9.265774 -2.157273 -16.405471 -2.280738 -2.456077 18.294905 -0.886170 -2.187650 -19.162690 -0.069745 -6.543611 3.727347 -16.861058 -1.187467 -0.316618 16.454284 4.762340 -1.752285 -3.620727 3.464899 1.672800 0.281570 1.061370 1.576980 -18.976546 17.339533 15.703805 24.766241 7.007237 -1.437489 -17.531602 -3.443251 -0.755052 1.833616 -3.629100 0.634160 -1.223310 -2.973990 -1.290710 
15.450610 17.100670 5.515910 0.652558 -24.476803 -14.198958 -15.768314 14.693842 3.450136 11.216965 -2.328746 4.353914 -12.105465 6.803624 11.493753 0.264832 7.670762 3.050457 3.986180 0.992180 4.196800 17.670009 -9.255724 2.792319 -1.313838 3.899300 -16.180455 7.634171 -3.385344 8.765716 -0.983375 -2.560930 4.291601 1.001040 -0.988620 2.273120 -1.360517 -6.321581 -8.299368 6.067216 -4.914610 42.647763 -1.971936 -0.760485 -2.016365 9.244675 -1.377311 -14.117322 -1.904447 -3.627383 22.729436 -2.685720 -2.767980 -18.845810 -5.016848 -2.488464 0.910772 -13.457002 -1.840653 -0.122668 18.770921 0.330466 -2.023592 -3.517932 3.377887 1.837260 0.227480 1.045160 1.491230 -14.491281 12.749022 13.381393 24.678329 6.973215 -2.048230 -20.234463 2.147851 -1.109497 1.708659 -3.565052 0.515510 -1.256290 -2.906610 -1.398020 
15.269680 16.917220 5.625980 1.728580 -23.775811 -15.131469 -15.749402 14.983360 3.286140 11.707186 -2.628586 3.108793 -11.763700 8.282209 18.763235 0.275729 8.260936 2.810715 3.910180 0.949150 4.095610 17.637417 -9.223058 2.791368 -3.696404 3.982063 -19.239024 8.888354 -3.568220 9.729031 -0.906844 -2.548396 4.313932 0.981090 -0.861980 2.299340 -1.321854 -6.796800 -8.246486 3.224324 -5.342868 47.043866 -0.540429 -0.948291 -8.474831 8.737672 -2.151822 -13.016465 -3.310828 -1.615878 22.535815 -1.775200 -1.845490 -17.922310 -3.470338 1.526119 -0.963120 -16.497028 -2.983320 0.127661 19.232967 -1.228410 -2.053179 -3.645572 3.297439 1.808280 0.318840 0.988570 1.472960 -15.304431 10.164239 12.501140 25.365728 8.457751 -1.446742 -19.628795 4.958957 -1.297258 1.592574 -3.495101 0.492480 -1.207180 -2.809160 -1.372120 
